<svg xmlns="http://www.w3.org/2000/svg" viewBox="0 0 800 500" fill="none" font-family="system-ui,sans-serif">
  <rect width="800" height="500" fill="#fff" stroke="#e5e7eb"/>
  <text x="400" y="30" text-anchor="middle" font-size="14" font-weight="700" fill="#111">Wireframe: Daftar Tiket</text>
  <!-- Navbar -->
  <rect x="0" y="45" width="800" height="40" fill="#f9fafb" stroke="#e5e7eb"/>
  <text x="48" y="70" font-size="12" font-weight="600" fill="#374151">IT Helpdesk</text>
  <!-- Header -->
  <text x="30" y="115" font-size="18" font-weight="700" fill="#111">Tiket</text>
  <!-- Filter Bar -->
  <rect x="30" y="130" width="740" height="50" rx="10" fill="#f9fafb" stroke="#e5e7eb"/>
  <rect x="44" y="142" width="120" height="26" rx="6" fill="#fff" stroke="#d1d5db"/>
  <text x="56" y="160" font-size="10" fill="#9ca3af">Status ▼</text>
  <rect x="174" y="142" width="120" height="26" rx="6" fill="#fff" stroke="#d1d5db"/>
  <text x="186" y="160" font-size="10" fill="#9ca3af">Kategori ▼</text>
  <rect x="304" y="142" width="180" height="26" rx="6" fill="#fff" stroke="#d1d5db"/>
  <text x="316" y="160" font-size="10" fill="#9ca3af">🔍 Cari tiket...</text>
  <rect x="660" y="142" width="96" height="26" rx="6" fill="#374151"/>
  <text x="708" y="160" text-anchor="middle" font-size="10" fill="#fff" font-weight="600">+ Buat Tiket</text>
  <!-- Ticket Cards -->
  <rect x="30" y="195" width="740" height="70" rx="10" fill="#fff" stroke="#e5e7eb"/>
  <rect x="46" y="211" width="8" height="38" rx="4" fill="#22c55e"/>
  <text x="66" y="226" font-size="12" font-weight="600" fill="#374151">TKT-MO9G0B44 — Printer lantai 2 error</text>
  <text x="66" y="242" font-size="10" fill="#9ca3af">Hardware · dicky · 22/04/2026</text>
  <rect x="640" y="218" width="60" height="22" rx="11" fill="#dcfce7"/>
  <text x="670" y="233" text-anchor="middle" font-size="9" font-weight="600" fill="#16a34a">OPEN</text>
  <text x="720" y="233" font-size="14" fill="#d1d5db">›</text>

  <rect x="30" y="275" width="740" height="70" rx="10" fill="#fff" stroke="#e5e7eb"/>
  <rect x="46" y="291" width="8" height="38" rx="4" fill="#3b82f6"/>
  <text x="66" y="306" font-size="12" font-weight="600" fill="#374151">TKT-MO9FSJTF — WiFi kantor mati</text>
  <text x="66" y="322" font-size="10" fill="#9ca3af">Network · rangga · Staff: IT Support · 21/04/2026</text>
  <rect x="620" y="298" width="80" height="22" rx="11" fill="#dbeafe"/>
  <text x="660" y="313" text-anchor="middle" font-size="9" font-weight="600" fill="#2563eb">IN_PROGRESS</text>

  <rect x="30" y="355" width="740" height="70" rx="10" fill="#fff" stroke="#e5e7eb"/>
  <rect x="46" y="371" width="8" height="38" rx="4" fill="#6b7280"/>
  <text x="66" y="386" font-size="12" font-weight="600" fill="#374151">TKT-MO9FQG8Y — Laptop tidak bisa boot</text>
  <text x="66" y="402" font-size="10" fill="#9ca3af">Hardware · budi · Staff: Staff 2 · 20/04/2026</text>
  <rect x="640" y="378" width="60" height="22" rx="11" fill="#f3f4f6"/>
  <text x="670" y="393" text-anchor="middle" font-size="9" font-weight="600" fill="#6b7280">CLOSED</text>
  <!-- Annotations -->
  <line x1="46" y1="460" x2="46" y2="470" stroke="#22c55e" stroke-width="6" stroke-linecap="round"/>
  <text x="60" y="470" font-size="9" fill="#9ca3af">= status color indicator</text>
</svg>
